<svg version="1.2" xmlns="http://www.w3.org/2000/svg" viewBox="0 0 64 64" width="512" height="512">
	<title>NFA-svg</title>
	<style>
		.s0 { fill: #e2e7f6 } 
		.s1 { fill: #f2f2f2 } 
		.s2 { fill: #f2b9a1 } 
		.s3 { fill: #4d8c28 } 
		.s4 { fill: #559b2d } 
		.s5 { fill: #5e87ca } 
		.s6 { fill: #78a0d4 } 
		.s7 { fill: #e29f88 } 
		.s8 { fill: #474747 } 
		.s9 { fill: #000000 } 
	</style>
	<g id="Layer_30">
		<path id="Layer" class="s0" d="m2 2h44v60h-44z"/>
		<path id="Layer" class="s1" d="m2 2h40v56h-40z"/>
		<path id="Layer" class="s2" d="m50 40h-4l-4-4v-6h-1q-0.6 0-1.1 0.2-0.6 0.3-1 0.7-0.4 0.4-0.7 1-0.2 0.5-0.2 1.1v7h-8q-0.4 0-0.8 0.2-0.3 0.1-0.6 0.4-0.3 0.3-0.4 0.6-0.2 0.4-0.2 0.8v12q0 0.4 0.2 0.8 0.1 0.3 0.4 0.6 0.3 0.3 0.6 0.4 0.4 0.2 0.8 0.2h12l4-2h4z"/>
		<path id="Layer" class="s3" d="m6 36h8v8h-8z"/>
		<path id="Layer" class="s4" d="m12 40v-4h-6v6h4q0.4 0 0.8-0.2 0.3-0.1 0.6-0.4 0.3-0.3 0.4-0.6 0.2-0.4 0.2-0.8z"/>
		<path id="Layer" class="s5" d="m6 6h36v12h-36z"/>
		<path id="Layer" class="s3" d="m6 24h8v8h-8z"/>
		<path id="Layer" class="s4" d="m12 27v-3h-6v6h3q0.6 0 1.1-0.2 0.6-0.3 1-0.7 0.4-0.4 0.7-1 0.2-0.5 0.2-1.1z"/>
		<path id="Layer" class="s3" d="m6 50h8v8h-8z"/>
		<path id="Layer" class="s4" d="m12 54v-4h-6v6h4q0.4 0 0.8-0.2 0.3-0.1 0.6-0.4 0.3-0.3 0.4-0.6 0.2-0.4 0.2-0.8z"/>
		<path id="Layer" class="s1" d="m13 9h20v2h-20z"/>
		<path id="Layer" class="s1" d="m35 9h4v2h-4z"/>
		<path id="Layer" class="s1" d="m9 13h30v2h-30z"/>
		<path id="Layer" class="s5" d="m50 38h12v18h-12z"/>
		<path id="Layer" class="s6" d="m58 49v-11h-8v14h5q0.6 0 1.1-0.2 0.6-0.3 1-0.7 0.4-0.4 0.7-1 0.2-0.5 0.2-1.1z"/>
		<path id="Layer" class="s7" d="m28 51h9v2h-9z"/>
		<path id="Layer" class="s7" d="m28 47h9v2h-9z"/>
		<path id="Layer" class="s7" d="m28 43h9v2h-9z"/>
		<path id="Layer" class="s8" d="m9.3 27.3l6-6 1.4 1.4-6 6z"/>
		<path id="Layer" class="s8" d="m9.3 40.3l6-6 1.4 1.4-6 6z"/>
		<path id="Layer" class="s8" d="m9.3 53.3l6-6 1.4 1.4-6 6z"/>
		<g id="Layer">
			<path id="Layer" class="s6" d="m18 30h16v2h-16z"/>
			<path id="Layer" class="s6" d="m18 26h16v2h-16z"/>
			<path id="Layer" class="s6" d="m18 43h7v2h-7z"/>
			<path id="Layer" class="s6" d="m18 39h7v2h-7z"/>
			<path id="Layer" class="s6" d="m18 56h7v2h-7z"/>
			<path id="Layer" class="s6" d="m18 52h7v2h-7z"/>
		</g>
		<path id="Layer" fill-rule="evenodd" class="s9" d="m5.6 18.9q-0.2-0.1-0.3-0.2-0.1-0.1-0.2-0.3-0.1-0.2-0.1-0.4v-12q0-0.2 0.1-0.4 0.1-0.2 0.2-0.3 0.1-0.1 0.3-0.2 0.2-0.1 0.4-0.1h36q0.2 0 0.4 0.1 0.2 0.1 0.3 0.2 0.1 0.1 0.2 0.3 0.1 0.2 0.1 0.4v12q0 0.2-0.1 0.4-0.1 0.2-0.2 0.3-0.1 0.1-0.3 0.2-0.2 0.1-0.4 0.1h-36q-0.2 0-0.4-0.1zm1.4-1.9h34v-10h-34z"/>
		<path id="Layer" class="s9" d="m13 9h20v2h-20z"/>
		<path id="Layer" class="s9" d="m35 9h4v2h-4z"/>
		<path id="Layer" class="s9" d="m9 13h30v2h-30z"/>
		<path id="Layer" fill-rule="evenodd" class="s9" d="m62.4 37.1q0.2 0.1 0.3 0.2 0.1 0.1 0.2 0.3 0.1 0.2 0.1 0.4v18q0 0.2-0.1 0.4-0.1 0.2-0.2 0.3-0.1 0.1-0.3 0.2-0.2 0.1-0.4 0.1h-12q-0.2 0-0.4-0.1-0.2-0.1-0.3-0.2-0.1-0.1-0.2-0.3-0.1-0.2-0.1-0.4v-1h-2v7q0 0.2-0.1 0.4-0.1 0.2-0.2 0.3-0.1 0.1-0.3 0.2-0.2 0.1-0.4 0.1h-44q-0.2 0-0.4-0.1-0.2-0.1-0.3-0.2-0.1-0.1-0.2-0.3-0.1-0.2-0.1-0.4v-60q0-0.2 0.1-0.4 0.1-0.2 0.2-0.3 0.1-0.1 0.3-0.2 0.2-0.1 0.4-0.1h44q0.2 0 0.4 0.1 0.2 0.1 0.3 0.2 0.1 0.1 0.2 0.3 0.1 0.2 0.1 0.4v37h2v-1q0-0.2 0.1-0.4 0.1-0.2 0.2-0.3 0.1-0.1 0.3-0.2 0.2-0.1 0.4-0.1h12q0.2 0 0.4 0.1zm-17.4 23.9v-5.4l-2.6 1.3q0 0-0.1 0 0 0.1-0.1 0.1 0 0-0.1 0 0 0-0.1 0h-12q-0.6 0-1.1-0.2-0.6-0.3-1-0.7-0.4-0.4-0.7-1-0.2-0.5-0.2-1.1v-12q0-0.6 0.2-1.1 0.3-0.6 0.7-1 0.4-0.4 1-0.7 0.5-0.2 1.1-0.2h7v-6q0-0.8 0.3-1.5 0.3-0.8 0.9-1.3 0.5-0.6 1.3-0.9 0.7-0.3 1.5-0.3h1q0.2 0 0.4 0.1 0.2 0.1 0.3 0.2 0.1 0.1 0.2 0.3 0.1 0.2 0.1 0.4v5.6l2 2v-34.6h-42v58zm4-8v-12h-3q-0.1 0-0.2 0-0.1 0-0.2-0.1-0.1 0-0.2-0.1 0 0-0.1-0.1l-4-4q-0.1-0.1-0.1-0.1-0.1-0.1-0.1-0.2-0.1-0.1-0.1-0.2 0-0.1 0-0.2v-5q-0.4 0-0.8 0.2-0.3 0.1-0.6 0.4-0.3 0.3-0.4 0.6-0.2 0.4-0.2 0.8v7q0 0.2-0.1 0.4-0.1 0.2-0.2 0.3-0.1 0.1-0.3 0.2-0.2 0.1-0.4 0.1h-8q-0.2 0-0.4 0.1-0.2 0.1-0.3 0.2-0.1 0.1-0.2 0.3-0.1 0.2-0.1 0.4v1h8v2h-8v2h8v2h-8v2h8v2h-8v1q0 0.2 0.1 0.4 0.1 0.2 0.2 0.3 0.1 0.1 0.3 0.2 0.2 0.1 0.4 0.1h11.8l3.8-1.9q0 0 0.1 0 0-0.1 0.1-0.1 0 0 0.1 0 0 0 0.1 0zm12-14h-10v16h10z"/>
		<path id="Layer" fill-rule="evenodd" class="s9" d="m15.3 21.3l1.4 1.4-1.7 1.7v7.6q0 0.2-0.1 0.4-0.1 0.2-0.2 0.3-0.1 0.1-0.3 0.2-0.2 0.1-0.4 0.1h-8q-0.2 0-0.4-0.1-0.2-0.1-0.3-0.2-0.1-0.1-0.2-0.3-0.1-0.2-0.1-0.4v-8q0-0.2 0.1-0.4 0.1-0.2 0.2-0.3 0.1-0.1 0.3-0.2 0.2-0.1 0.4-0.1h7.6zm-2.3 5.1l-2.3 2.3-1.4-1.4 2.3-2.3h-4.6v6h6z"/>
		<path id="Layer" fill-rule="evenodd" class="s9" d="m15.3 34.3l1.4 1.4-1.7 1.7v7.6q0 0.2-0.1 0.4-0.1 0.2-0.2 0.3-0.1 0.1-0.3 0.2-0.2 0.1-0.4 0.1h-8q-0.2 0-0.4-0.1-0.2-0.1-0.3-0.2-0.1-0.1-0.2-0.3-0.1-0.2-0.1-0.4v-8q0-0.2 0.1-0.4 0.1-0.2 0.2-0.3 0.1-0.1 0.3-0.2 0.2-0.1 0.4-0.1h7.6zm-2.3 5.1l-2.3 2.3-1.4-1.4 2.3-2.3h-4.6v6h6z"/>
		<path id="Layer" fill-rule="evenodd" class="s9" d="m16.7 48.7l-1.7 1.7v7.6q0 0.2-0.1 0.4-0.1 0.2-0.2 0.3-0.1 0.1-0.3 0.2-0.2 0.1-0.4 0.1h-8q-0.2 0-0.4-0.1-0.2-0.1-0.3-0.2-0.1-0.1-0.2-0.3-0.1-0.2-0.1-0.4v-8q0-0.2 0.1-0.4 0.1-0.2 0.2-0.3 0.1-0.1 0.3-0.2 0.2-0.1 0.4-0.1h7.6l1.7-1.7zm-3.7 3.7l-2.3 2.3-1.4-1.4 2.3-2.3h-4.6v6h6z"/>
		<path id="Layer" class="s9" d="m18 30h16v2h-16z"/>
		<path id="Layer" class="s9" d="m18 26h16v2h-16z"/>
		<path id="Layer" class="s9" d="m18 43h7v2h-7z"/>
		<path id="Layer" class="s9" d="m18 39h7v2h-7z"/>
		<path id="Layer" class="s9" d="m18 56h7v2h-7z"/>
		<path id="Layer" class="s9" d="m18 52h7v2h-7z"/>
	</g>
</svg>